<svg width="84" height="84" viewBox="0 0 84 84" fill="none" xmlns="http://www.w3.org/2000/svg">
    <path d="M42 21.1666C44.2917 21.1666 46.1667 23.0416 46.1667 25.3333V41.9999C46.1667 44.2916 44.2917 46.1666 42 46.1666C39.7083 46.1666 37.8333 44.2916 37.8333 41.9999V25.3333C37.8333 23.0416 39.7083 21.1666 42 21.1666ZM41.9583 0.333252C18.9583 0.333252 0.333328 18.9999 0.333328 41.9999C0.333328 64.9999 18.9583 83.6666 41.9583 83.6666C65 83.6666 83.6667 64.9999 83.6667 41.9999C83.6667 18.9999 65 0.333252 41.9583 0.333252ZM42 75.3332C23.5833 75.3332 8.66666 60.4166 8.66666 41.9999C8.66666 23.5833 23.5833 8.66658 42 8.66658C60.4167 8.66658 75.3333 23.5833 75.3333 41.9999C75.3333 60.4166 60.4167 75.3332 42 75.3332ZM46.1667 62.8332H37.8333V54.4999H46.1667V62.8332Z" fill="#DA8300"/>
</svg>
